<mxfile host="app.diagrams.net" agent="Mozilla/5.0 (Windows NT 10.0; Win64; x64) AppleWebKit/537.36 (KHTML, like Gecko) Chrome/129.0.0.0 Safari/537.36" version="27.1.4">
  <diagram name="existing architectrure" id="fGJeN8V92Lidl0LPt1Ot">
    <mxGraphModel dx="1727" dy="951" grid="1" gridSize="10" guides="1" tooltips="1" connect="1" arrows="1" fold="1" page="1" pageScale="1" pageWidth="4681" pageHeight="3300" math="0" shadow="0">
      <root>
        <mxCell id="0" />
        <mxCell id="1" parent="0" />
        <mxCell id="aG8UcZv4t0vJflEihgxj-1" value="&lt;b&gt;&lt;font style=&quot;font-size: 24px;&quot;&gt;ConnectionData&lt;/font&gt;&lt;/b&gt;" style="swimlane;childLayout=stackLayout;horizontal=1;startSize=50;horizontalStack=0;rounded=1;fontSize=14;fontStyle=0;strokeWidth=2;resizeParent=0;resizeLast=1;shadow=0;dashed=0;align=center;arcSize=4;whiteSpace=wrap;html=1;" parent="1" vertex="1">
          <mxGeometry x="110" y="60" width="390" height="440" as="geometry" />
        </mxCell>
        <mxCell id="aG8UcZv4t0vJflEihgxj-2" value="&lt;font style=&quot;font-size: 12px;&quot;&gt;+ InitTime&amp;nbsp; &amp;nbsp; int64&lt;br&gt;+ LastRemoteSendTime int64&lt;br&gt;+ LastLocalSendTime int64&lt;/font&gt;&lt;div&gt;&lt;font style=&quot;font-size: 12px;&quot;&gt;+ LastLocalRecvTime int64&lt;/font&gt;&lt;/div&gt;&lt;div&gt;&lt;font style=&quot;font-size: 12px;&quot;&gt;&lt;br&gt;&lt;/font&gt;&lt;/div&gt;&lt;div&gt;&lt;font style=&quot;&quot;&gt;&lt;div style=&quot;&quot;&gt;+ sync.Mutex&lt;/div&gt;&lt;div style=&quot;&quot;&gt;+ sync.WaitGroup&lt;/div&gt;&lt;div style=&quot;&quot;&gt;&lt;br&gt;&lt;/div&gt;&lt;div style=&quot;&quot;&gt;+ Device&amp;nbsp; &amp;nbsp; &amp;nbsp; &amp;nbsp; &amp;nbsp; &amp;nbsp;*Device&lt;/div&gt;&lt;div style=&quot;&quot;&gt;+ LocalAddr&amp;nbsp; &amp;nbsp; &amp;nbsp; &amp;nbsp; *net.UDPAddr&lt;/div&gt;&lt;div style=&quot;&quot;&gt;+ RemoteAddr&amp;nbsp; &amp;nbsp; &amp;nbsp; &amp;nbsp;*net.UDPAddr&lt;/div&gt;&lt;div style=&quot;&quot;&gt;+ CookieStore&amp;nbsp; &amp;nbsp; &amp;nbsp; *CookieStore&lt;/div&gt;&lt;div style=&quot;&quot;&gt;+ TimeoutMs&amp;nbsp; &amp;nbsp; &amp;nbsp; &amp;nbsp; int&lt;/div&gt;&lt;div style=&quot;&quot;&gt;+ SendQueue&amp;nbsp; &amp;nbsp; &amp;nbsp; &amp;nbsp; chan *Packet&lt;/div&gt;&lt;div style=&quot;&quot;&gt;+ RecvQueue&amp;nbsp; &amp;nbsp; &amp;nbsp; &amp;nbsp; chan *Packet&lt;/div&gt;&lt;div style=&quot;&quot;&gt;+ BlockSignal&amp;nbsp; &amp;nbsp; &amp;nbsp; chan struct{}&lt;/div&gt;&lt;div style=&quot;&quot;&gt;+ SetTimeoutSignal chan struct{}&lt;/div&gt;&lt;div style=&quot;&quot;&gt;+ StopSignal&amp;nbsp; &amp;nbsp; &amp;nbsp; &amp;nbsp;chan struct{}&lt;/div&gt;&lt;div style=&quot;&quot;&gt;&lt;br&gt;&lt;/div&gt;&lt;div style=&quot;&quot;&gt;+ closed atomic.Bool&lt;/div&gt;&lt;div style=&quot;&quot;&gt;&lt;br&gt;&lt;/div&gt;&lt;div style=&quot;&quot;&gt;+ RemoteTransactionMutex sync.Mutex&lt;/div&gt;&lt;div style=&quot;&quot;&gt;+ RemoteTransactionMap&amp;nbsp; &amp;nbsp;map[uint64]*RemoteTransaction&lt;/div&gt;&lt;div style=&quot;&quot;&gt;&lt;br&gt;&lt;/div&gt;&lt;div style=&quot;&quot;&gt;+ RecvThreatCount int32&lt;/div&gt;&lt;/font&gt;&lt;/div&gt;" style="align=left;strokeColor=none;fillColor=none;spacingLeft=4;spacingRight=4;fontSize=12;verticalAlign=top;resizable=0;rotatable=0;part=1;html=1;whiteSpace=wrap;" parent="aG8UcZv4t0vJflEihgxj-1" vertex="1">
          <mxGeometry y="50" width="390" height="390" as="geometry" />
        </mxCell>
        <mxCell id="dzqzgqo6WXaDwN_nYjMx-5" value="&lt;b&gt;&lt;font style=&quot;font-size: 24px;&quot;&gt;Device&lt;/font&gt;&lt;/b&gt;" style="swimlane;childLayout=stackLayout;horizontal=1;startSize=50;horizontalStack=0;rounded=1;fontSize=14;fontStyle=0;strokeWidth=2;resizeParent=0;resizeLast=1;shadow=0;dashed=0;align=center;arcSize=4;whiteSpace=wrap;html=1;" vertex="1" parent="1">
          <mxGeometry x="720" y="60" width="390" height="440" as="geometry" />
        </mxCell>
        <mxCell id="dzqzgqo6WXaDwN_nYjMx-6" value="&lt;div&gt;+ optionMutex sync.Mutex&lt;/div&gt;&lt;div&gt;+ option&amp;nbsp; &amp;nbsp; &amp;nbsp; DeviceOptions&lt;/div&gt;&lt;div&gt;&lt;br&gt;&lt;/div&gt;&lt;div&gt;+ counterIndex&amp;nbsp; &amp;nbsp; uint64&lt;/div&gt;&lt;div&gt;+ deviceType&amp;nbsp; &amp;nbsp; &amp;nbsp; int&lt;/div&gt;&lt;div&gt;+ staticEcdhCurve Ecdh // for cipherscheme curve&lt;/div&gt;&lt;div&gt;+ staticEcdhGmsm&amp;nbsp; Ecdh // for cipherscheme gmsm&lt;/div&gt;&lt;div&gt;&lt;br&gt;&lt;/div&gt;&lt;div&gt;+ peerMapMutex sync.Mutex&lt;/div&gt;&lt;div&gt;+ peerMap&amp;nbsp; &amp;nbsp; &amp;nbsp; map[string]Peer&lt;/div&gt;&lt;div&gt;&lt;br&gt;&lt;/div&gt;&lt;div&gt;+ localTransactionMutex sync.Mutex&lt;/div&gt;&lt;div&gt;+ localTransactionMap&amp;nbsp; &amp;nbsp;map[uint64]*LocalTransaction&lt;/div&gt;&lt;div&gt;&lt;br&gt;&lt;/div&gt;&lt;div&gt;+ pool&amp;nbsp; &amp;nbsp; &amp;nbsp;*PacketBufferPool&lt;/div&gt;&lt;div&gt;+ Overload atomic.Bool&lt;/div&gt;&lt;div&gt;&lt;br&gt;&lt;/div&gt;&lt;div&gt;+ wg&amp;nbsp; &amp;nbsp; &amp;nbsp; sync.WaitGroup&lt;/div&gt;&lt;div&gt;+ signals struct {&lt;/div&gt;&lt;div&gt;+&amp;nbsp; &amp;nbsp; &amp;nbsp;stop chan struct{}&lt;/div&gt;&lt;div&gt;+ }&lt;/div&gt;&lt;div&gt;&lt;br&gt;&lt;/div&gt;&lt;div&gt;+ DecryptedMsgQueue chan *PacketParserData&lt;/div&gt;&lt;div&gt;+ packetToMsgQueue&amp;nbsp; chan *PacketData&lt;/div&gt;&lt;div&gt;+ msgToPacketQueue&amp;nbsp; chan *MsgData&lt;/div&gt;" style="align=left;strokeColor=none;fillColor=none;spacingLeft=4;spacingRight=4;fontSize=12;verticalAlign=top;resizable=0;rotatable=0;part=1;html=1;whiteSpace=wrap;" vertex="1" parent="dzqzgqo6WXaDwN_nYjMx-5">
          <mxGeometry y="50" width="390" height="390" as="geometry" />
        </mxCell>
        <mxCell id="dzqzgqo6WXaDwN_nYjMx-7" value="&lt;b&gt;&lt;font style=&quot;font-size: 24px;&quot;&gt;Peer&lt;/font&gt;&lt;/b&gt;" style="swimlane;childLayout=stackLayout;horizontal=1;startSize=50;horizontalStack=0;rounded=1;fontSize=14;fontStyle=0;strokeWidth=2;resizeParent=0;resizeLast=1;shadow=0;dashed=0;align=center;arcSize=4;whiteSpace=wrap;html=1;" vertex="1" parent="1">
          <mxGeometry x="720" y="650" width="390" height="330" as="geometry" />
        </mxCell>
        <mxCell id="dzqzgqo6WXaDwN_nYjMx-8" value="&lt;div&gt;+ sync.Mutex&lt;/div&gt;&lt;div&gt;&lt;br&gt;&lt;/div&gt;&lt;div&gt;+ PubKeyBase64 string `json:&quot;pubKeyBase64&quot;`&lt;/div&gt;&lt;div&gt;+ Hostname&amp;nbsp; &amp;nbsp; &amp;nbsp;string `json:&quot;host,omitempty&quot;`&lt;/div&gt;&lt;div&gt;+ Ip&amp;nbsp; &amp;nbsp; &amp;nbsp; &amp;nbsp; &amp;nbsp; &amp;nbsp;string `json:&quot;ip&quot;` // static ip, it may be different from primaryResolvedIp&lt;/div&gt;&lt;div&gt;+ Port&amp;nbsp; &amp;nbsp; &amp;nbsp; &amp;nbsp; &amp;nbsp;int&amp;nbsp; &amp;nbsp; `json:&quot;port&quot;`&lt;/div&gt;&lt;div&gt;+ Type&amp;nbsp; &amp;nbsp; &amp;nbsp; &amp;nbsp; &amp;nbsp;int&amp;nbsp; &amp;nbsp; `json:&quot;type&quot;`&lt;/div&gt;&lt;div&gt;+ ExpireTime&amp;nbsp; &amp;nbsp;int64&amp;nbsp; `json:&quot;expireTime&quot;`&lt;/div&gt;&lt;div&gt;+ name&amp;nbsp; &amp;nbsp; &amp;nbsp; &amp;nbsp; &amp;nbsp;string&lt;/div&gt;&lt;div&gt;+ pubKey&amp;nbsp; &amp;nbsp; &amp;nbsp; &amp;nbsp;[]byte&lt;/div&gt;&lt;div&gt;&lt;br&gt;&lt;/div&gt;&lt;div&gt;+ lastSendTime&amp;nbsp; &amp;nbsp; &amp;nbsp; int64&lt;/div&gt;&lt;div&gt;+ lastRecvTime&amp;nbsp; &amp;nbsp; &amp;nbsp; int64&lt;/div&gt;&lt;div&gt;+ lastNSLookupTime&amp;nbsp; int64&lt;/div&gt;&lt;div&gt;+ resolvedIpArr&amp;nbsp; &amp;nbsp; &amp;nbsp;[]string&lt;/div&gt;&lt;div&gt;+ primaryResolvedIp string&lt;/div&gt;&lt;div&gt;+ recvAddr&amp;nbsp; &amp;nbsp; &amp;nbsp; &amp;nbsp; &amp;nbsp; *net.UDPAddr&lt;/div&gt;" style="align=left;strokeColor=none;fillColor=none;spacingLeft=4;spacingRight=4;fontSize=12;verticalAlign=top;resizable=0;rotatable=0;part=1;html=1;whiteSpace=wrap;" vertex="1" parent="dzqzgqo6WXaDwN_nYjMx-7">
          <mxGeometry y="50" width="390" height="280" as="geometry" />
        </mxCell>
      </root>
    </mxGraphModel>
  </diagram>
</mxfile>
